<svg xmlns="http://www.w3.org/2000/svg" width="128" height="128" viewBox="0 0 128 128">
  <defs>
    <linearGradient id="bg" x1="0" y1="0" x2="0.3" y2="1">
      <stop offset="0" stop-color="#1C2434"/><stop offset="1" stop-color="#0D111A"/>
    </linearGradient>
  </defs>
  <rect width="128" height="128" rx="28" fill="url(#bg)"/>
  <rect x="3" y="3" width="122" height="122" rx="25" fill="none" stroke="#2B3446" stroke-width="2"/>
  <!-- gold hex board medallion (flat-top) -->
  <polygon points="64,15 106.4,39.5 106.4,88.5 64,113 21.6,88.5 21.6,39.5"
           fill="none" stroke="#E8B23A" stroke-width="4.5" stroke-linejoin="round"/>
  <!-- carved knight: long muzzle down-left, single forward ear, faceted mane crest -->
  <polygon fill="#F4EEDC" stroke="#B9A876" stroke-width="1" stroke-linejoin="round"
    points="45,103 45,90 40,80 30,74 24,72 26,64 39,60 43,50 47,40 50,30 57,37 58,46 68,40 66,50 76,48 73,60 82,60 78,72 84,84 84,103"/>
  <circle cx="44" cy="53" r="2.6" fill="#1C2434"/>
  <rect x="41" y="103" width="48" height="5.5" rx="2.5" fill="#E8B23A"/>
</svg>
